<?xml version="1.0" standalone="no"?>
<!DOCTYPE svg PUBLIC "-//W3C//DTD SVG 20010904//EN"
 "http://www.w3.org/TR/2001/REC-SVG-20010904/DTD/svg10.dtd">
<svg version="1.0" xmlns="http://www.w3.org/2000/svg"
 width="500.000000pt" height="500.000000pt" viewBox="0 0 500.000000 500.000000"
 preserveAspectRatio="xMidYMid meet">
<metadata>
Created by potrace 1.16, written by Peter Selinger 2001-2019
</metadata>
<g transform="translate(0.000000,500.000000) scale(0.100000,-0.100000)"
fill="#000000" stroke="none">
<path d="M2287 4635 c-117 -60 -195 -134 -230 -217 -33 -80 -48 -54 -36 66 2
23 -1 40 -7 43 -16 5 -24 -21 -31 -94 -3 -35 -7 -63 -9 -63 -1 0 -27 24 -57
54 -50 48 -106 86 -128 86 -20 0 -40 -34 -34 -58 5 -21 3 -23 -12 -17 -108 47
-159 -16 -58 -71 48 -26 44 -31 -19 -26 -35 3 -72 -1 -102 -12 -62 -21 -524
-285 -524 -300 0 -6 -35 -33 -77 -61 -213 -139 -299 -240 -232 -275 16 -9 25
-8 40 6 26 23 34 12 20 -27 -16 -47 -14 -144 3 -158 21 -18 56 3 56 34 0 13
16 55 35 93 20 39 37 82 38 97 2 32 -20 46 -29 18 -13 -39 -67 -143 -75 -143
-13 0 -12 5 17 77 l26 65 -23 25 -24 25 40 34 c49 42 185 133 241 162 23 12
50 32 60 45 51 65 494 296 494 257 0 -5 -9 -10 -19 -10 -51 0 -140 -157 -127
-223 5 -25 -1 -35 -46 -76 -61 -56 -61 -103 0 -109 l31 -3 -2 -62 c-2 -35 -10
-73 -19 -87 -41 -65 -30 -186 17 -183 l28 2 -7 -92 c-11 -152 -55 -323 -116
-449 -35 -75 -38 -84 -23 -95 15 -12 15 -14 0 -31 -9 -10 -17 -24 -17 -30 0
-7 -4 -12 -10 -12 -5 0 -10 7 -10 17 0 44 -35 125 -60 138 -14 7 -40 33 -58
58 -38 54 -77 79 -155 101 -92 27 -205 151 -224 249 -12 60 -84 110 -389 267
-95 50 -134 64 -178 68 l-56 4 0 -40 c0 -56 68 -126 163 -167 68 -30 90 -53
39 -41 -198 46 -220 -69 -31 -165 72 -36 74 -49 11 -49 -120 0 -104 -106 25
-168 41 -19 43 -36 4 -27 -93 20 -1 -183 125 -276 86 -63 140 -80 260 -82 96
-2 126 -8 111 -23 -3 -4 -61 -13 -127 -20 -316 -34 -367 -46 -376 -87 -9 -43
40 -90 113 -107 l55 -14 -6 -37 c-14 -87 239 -173 343 -117 29 16 28 34 -2 30
-12 -1 -44 -5 -70 -8 -122 -16 -232 40 -232 117 0 42 -1 43 -38 51 -85 18
-145 70 -107 93 12 7 239 39 392 55 240 25 199 97 -58 99 -146 2 -283 90 -358
229 -33 63 -33 64 22 49 101 -27 112 38 14 87 -152 77 -173 126 -52 126 100 0
93 49 -14 106 -184 98 -144 151 62 83 61 -20 66 -21 78 -5 10 15 15 15 33 4
17 -10 23 -10 33 0 16 16 -18 48 -61 59 -119 28 -321 160 -321 208 0 44 512
-233 545 -295 7 -14 30 -60 50 -102 46 -95 112 -162 176 -177 71 -18 127 -52
160 -99 18 -25 46 -53 64 -63 36 -21 70 -99 47 -107 -18 -6 -15 -22 14 -59 32
-42 49 -42 70 2 25 53 31 43 26 -38 -5 -82 6 -114 40 -119 19 -2 24 -12 30
-57 10 -63 40 -111 72 -111 14 0 28 -11 41 -32 33 -56 98 -120 143 -140 55
-25 56 -24 -43 -114 -78 -71 -85 -80 -85 -115 0 -26 -11 -57 -35 -96 -41 -68
-88 -207 -82 -242 5 -26 -25 -148 -39 -161 -31 -27 -67 -21 -60 11 8 42 -7 59
-53 59 -59 0 -111 12 -111 25 0 34 70 144 145 229 47 52 85 98 85 102 0 4 12
22 26 41 25 33 26 69 1 61 -12 -4 -51 -57 -60 -81 -3 -8 -10 -6 -19 7 -15 19
-16 19 -46 -2 -65 -47 -244 -70 -324 -43 -46 15 -48 31 -7 55 75 44 22 95 -79
76 -171 -32 -147 54 43 152 44 22 87 47 96 55 9 8 44 17 78 21 87 10 77 27
-15 26 -51 -1 -80 -6 -92 -17 -9 -8 -50 -31 -91 -52 -233 -116 -234 -282 -2
-215 46 13 53 3 18 -24 -44 -36 -36 -84 18 -104 80 -29 314 -10 362 30 31 26
23 -5 -13 -47 -186 -220 -210 -325 -75 -325 l70 0 -6 -34 c-9 -57 96 -78 139
-28 19 21 48 138 48 189 0 21 3 48 6 61 7 24 24 30 24 7 0 -7 6 -18 14 -22 13
-7 10 -21 -13 -88 -60 -168 -77 -322 -36 -318 19 2 20 -4 20 -90 0 -75 3 -92
15 -92 12 0 14 13 12 68 -6 116 22 74 48 -72 9 -49 9 -66 0 -71 -8 -5 -10 -19
-5 -39 4 -20 3 -31 -4 -31 -6 0 -11 5 -11 10 0 6 -9 19 -21 31 -26 26 -59 103
-59 137 0 15 -7 41 -16 57 -9 17 -19 48 -23 70 -11 67 -52 58 -107 -24 -106
-153 -100 -377 13 -493 40 -42 39 -60 -2 -31 -28 19 -108 167 -119 220 -13 57
-23 59 -163 39 -224 -32 -303 -63 -303 -117 0 -27 -6 -32 -67 -60 -154 -69
-149 -161 12 -227 135 -55 609 -152 747 -152 4 0 8 -22 8 -49 0 -66 95 -147
203 -174 278 -70 1435 -68 1719 3 113 28 218 112 218 174 l0 42 168 23 c342
46 597 110 681 171 75 55 57 127 -46 179 -40 20 -43 24 -43 62 0 62 -68 86
-363 129 -158 24 -172 20 -180 -47 -7 -57 -41 -143 -58 -143 -7 0 -8 7 -4 18
39 91 45 238 15 335 -49 158 -180 262 -180 142 0 -25 -4 -45 -10 -45 -6 0 -10
40 -10 99 0 162 -50 358 -119 472 -31 49 -39 79 -22 79 5 0 23 -23 41 -51 22
-36 35 -48 42 -41 16 16 -9 78 -46 115 -31 32 -101 146 -147 240 -33 69 -38
71 -115 52 -71 -18 -86 -15 -62 12 8 10 21 39 28 66 13 49 19 54 38 35 9 -9
13 -7 18 6 9 23 -6 36 -41 39 -26 2 -30 -2 -45 -52 -17 -58 -36 -77 -42 -39
-5 36 -64 39 -80 3 -11 -26 -165 -136 -207 -150 -28 -8 -27 9 2 37 30 30 49
70 40 79 -11 11 -53 0 -53 -13 0 -5 -20 -35 -43 -66 -24 -31 -49 -67 -56 -79
-15 -28 -27 -29 -34 -3 -9 34 -51 25 -93 -20 -50 -54 -98 -46 -138 21 -22 37
-86 43 -86 8 0 -29 -21 -19 -45 20 -73 120 -136 143 -171 63 -1 -2 -32 13 -69
32 -37 20 -73 36 -82 36 -8 0 -40 27 -71 61 -51 55 -60 60 -88 56 -38 -6 -46
8 -67 112 -20 97 -42 95 -34 -3 12 -138 79 -243 147 -232 36 6 41 4 49 -17 7
-17 17 -23 43 -24 35 -1 96 -27 181 -77 36 -21 56 -27 81 -23 28 4 36 1 60
-30 30 -37 28 -57 -3 -29 -11 10 -39 23 -63 31 -36 10 -104 39 -178 75 -9 4
-36 11 -60 15 -25 4 -52 14 -61 22 -33 28 -83 28 -102 -1 -23 -35 -38 -33 -30
4 5 28 3 31 -46 51 -57 24 -64 36 -23 41 34 4 36 30 3 38 -27 6 -92 114 -112
185 -15 53 -26 65 -61 65 -28 0 -30 2 -23 28 19 70 12 117 -17 120 -31 4 -37
-12 -11 -27 15 -8 16 -14 5 -43 -6 -19 -12 -58 -12 -86 0 -60 -17 -71 -22 -15
-2 29 -8 39 -23 41 -34 7 -45 23 -45 68 0 51 17 60 22 12 4 -46 21 -41 31 10
4 23 12 42 18 42 5 0 9 8 9 18 0 9 14 46 30 80 32 67 37 101 19 119 -7 7 1 28
28 70 21 34 43 69 49 78 10 17 12 17 41 -4 18 -13 52 -26 79 -29 40 -4 58 -13
97 -48 52 -46 110 -69 152 -58 14 4 25 2 25 -4 0 -6 -12 -13 -28 -16 -80 -18
-220 -147 -253 -235 -15 -37 8 -53 29 -21 77 115 204 230 254 230 17 0 5 -16
-30 -41 -39 -27 -127 -163 -117 -180 14 -22 35 -5 71 58 36 61 110 132 140
133 37 1 49 42 20 66 -15 14 -27 26 -25 28 2 2 23 13 46 25 129 65 89 331 -55
371 -120 33 -206 -10 -271 -136 -20 -38 -42 -69 -48 -68 -7 1 -33 2 -57 3 -35
1 -45 5 -49 22 -3 11 -14 23 -25 26 -18 4 -19 13 -14 195 5 179 4 192 -14 205
-21 15 -13 25 60 76 33 23 33 54 1 69 -30 14 -32 24 -4 33 55 18 41 85 -17 85
-70 0 24 73 124 96 117 27 99 94 -25 94 l-52 0 6 33 c8 42 3 40 81 46 82 7 90
37 27 101 -44 45 -44 48 3 46 33 -1 37 2 40 27 2 15 7 27 12 27 13 0 79 -80
101 -123 27 -51 72 -51 77 -1 2 22 9 34 23 37 11 3 27 25 38 51 33 75 231 249
256 224 11 -10 -79 -184 -121 -235 -49 -61 -53 -73 -25 -80 11 -3 22 -11 25
-19 10 -25 31 -15 70 32 77 92 193 118 294 68 29 -14 51 -31 49 -38 -6 -19
-112 -19 -152 0 -73 34 -114 -32 -50 -80 45 -34 67 -77 74 -145 14 -123 88
-65 79 61 l-4 57 55 7 c130 17 185 -13 197 -109 12 -85 61 -86 75 0 12 78 -5
117 -88 199 -83 82 -86 88 -40 79 130 -29 228 -146 211 -252 -6 -42 10 -70 22
-38 4 9 18 21 32 26 24 9 25 11 20 93 -7 97 1 119 40 110 37 -9 37 -9 13 -40
-30 -38 -27 -63 9 -77 17 -6 30 -20 32 -32 2 -11 13 -24 26 -30 16 -7 22 -18
22 -43 0 -25 5 -35 20 -39 24 -6 26 -19 5 -27 -29 -11 -17 -52 24 -80 60 -42
69 -76 102 -396 32 -313 40 -364 75 -460 20 -57 21 -66 9 -80 -22 -24 -18 -54
14 -128 48 -108 49 -122 13 -122 -28 0 -31 -3 -37 -42 -10 -66 -14 -75 -35
-81 -19 -5 -21 -11 -37 -102 -8 -49 -9 -50 -41 -47 -36 4 -52 -21 -52 -82 0
-19 -9 -45 -21 -60 -11 -14 -17 -30 -14 -36 12 -19 36 -10 53 20 9 16 25 30
35 30 19 0 23 -15 7 -25 -27 -17 67 -205 103 -205 51 0 182 -333 147 -374 -12
-16 20 -210 39 -229 22 -22 76 -3 86 31 9 30 12 32 40 25 39 -10 95 -7 108 6
39 39 -9 191 -98 309 -49 65 -54 84 -13 59 61 -39 284 -51 348 -19 44 21 55
73 21 94 -35 21 -25 26 57 25 204 -3 145 148 -94 240 -74 29 -85 48 -21 38 44
-8 59 -14 117 -46 108 -59 306 12 312 112 l3 51 55 20 c104 38 139 113 67 143
-45 19 -242 55 -299 55 -68 0 -65 24 5 40 118 26 219 79 271 141 80 95 104
211 41 195 -14 -4 -25 -2 -25 4 0 5 5 10 10 10 6 0 33 21 60 46 86 81 79 144
-17 144 -58 0 -54 9 20 49 146 79 150 181 7 181 -40 0 -38 13 4 28 46 17 124
104 132 147 19 104 -80 74 -438 -131 -182 -104 -188 -110 -239 -209 -52 -104
-98 -148 -174 -170 -81 -24 -137 -59 -159 -100 -11 -19 -36 -45 -55 -57 -20
-11 -42 -28 -48 -36 -21 -25 -24 -8 -8 38 16 44 14 70 -4 70 -5 0 -19 -29 -31
-65 -12 -36 -26 -65 -31 -65 -14 0 -52 89 -45 106 3 8 -8 50 -24 93 -33 91
-65 237 -80 371 -12 106 -23 177 -51 329 -11 57 -18 105 -17 106 2 1 19 6 38
11 53 15 54 52 1 87 -39 26 -40 29 -35 70 5 45 -90 167 -130 167 -9 0 -16 5
-16 11 0 27 123 -2 215 -51 50 -26 131 -69 180 -95 259 -138 364 -206 473
-308 57 -55 61 -63 33 -72 -28 -9 -34 -38 -16 -80 23 -56 20 -65 -19 -58 -41
6 -42 3 -51 -157 -8 -114 -27 -175 -72 -223 -31 -31 -19 -62 15 -41 53 33 80
109 89 247 6 96 24 130 31 59 2 -17 10 -36 17 -42 43 -36 65 45 41 155 -17 82
-17 83 23 54 34 -25 61 -15 61 23 0 83 -230 279 -485 414 -60 32 -141 75 -180
97 -193 106 -234 121 -317 122 -91 0 -91 0 -33 45 54 42 55 47 10 65 -44 19
-72 9 -123 -45 -53 -53 -88 -50 -47 4 8 11 15 26 15 34 0 8 10 22 23 32 18 15
20 21 9 31 -16 17 -65 -10 -70 -38 -2 -10 -15 -42 -29 -71 -14 -29 -28 -72
-31 -97 -4 -41 -22 -65 -22 -30 0 43 -97 117 -192 145 -130 40 -157 -5 -61
-102 63 -63 64 -72 10 -57 -88 24 -234 -13 -221 -56 13 -42 16 -95 5 -95 -6 0
-11 8 -11 18 0 35 -22 92 -45 121 -14 16 -25 31 -25 33 0 2 35 2 78 0 108 -5
147 6 147 43 0 74 -202 121 -326 75 -82 -30 -82 -38 2 147 38 84 3 113 -84 68z
m-708 -526 c20 -22 21 -22 65 -5 48 18 127 18 133 0 2 -7 -15 -14 -42 -18 -25
-4 -71 -20 -101 -37 -68 -35 -68 -35 -60 -3 5 20 3 27 -14 31 -13 3 -20 14
-20 29 0 30 13 31 39 3z m1835 -65 c28 -11 17 -32 -19 -38 -41 -8 -40 -4 -15
-83 10 -34 36 -176 56 -315 20 -139 50 -305 66 -368 48 -183 48 -208 0 -157
-47 50 -84 216 -102 462 -19 259 -51 427 -86 455 -24 21 -16 30 25 30 22 0 43
5 46 10 7 12 8 12 29 4z m1366 -336 c0 -49 -100 -128 -195 -153 -67 -17 -80
-27 -71 -50 4 -11 12 -14 25 -10 11 3 22 1 26 -5 5 -7 26 -9 61 -4 158 19 152
-45 -11 -132 -49 -26 -92 -49 -95 -51 -15 -13 50 -43 92 -43 119 0 99 -47 -64
-152 -79 -51 -91 -70 -48 -76 13 -2 29 -11 36 -19 10 -14 15 -13 42 7 40 30
48 22 26 -27 -53 -112 -236 -221 -376 -223 -21 0 -29 -6 -34 -25 -10 -39 1
-53 48 -59 315 -37 414 -70 332 -111 -12 -6 -28 -16 -35 -22 -8 -6 -33 -16
-57 -23 l-43 -11 3 -51 c4 -66 -40 -103 -143 -120 -67 -11 -76 -9 -163 39 -52
28 -160 31 -151 3 6 -18 4 -21 -12 -16 -51 15 -166 19 -161 5 3 -8 28 -17 64
-22 154 -22 422 -172 381 -213 -13 -13 -80 -21 -114 -14 -86 20 -129 -30 -68
-78 93 -73 -230 -86 -333 -14 -35 26 -52 28 -52 7 0 -16 -16 -21 -22 -6 -11
31 -125 161 -141 161 -35 0 1 -56 165 -253 163 -196 185 -337 43 -283 -59 23
-79 13 -72 -36 9 -70 -17 -37 -37 47 -18 74 -19 80 -3 108 36 61 -102 407
-171 432 -10 3 -34 33 -55 65 l-38 60 29 37 c15 21 51 84 78 140 36 76 53 101
64 97 56 -22 84 33 78 153 -4 81 -4 83 16 77 49 -16 49 -16 88 74 17 41 31 58
60 73 22 11 47 36 63 63 15 25 38 49 55 56 16 7 35 18 41 26 6 8 19 14 28 14
78 0 148 55 196 152 63 126 70 132 415 324 161 90 210 109 210 82z m-3278 -50
c4 -28 45 -38 54 -14 19 50 26 5 22 -136 -3 -133 -7 -161 -28 -210 -23 -57
-48 -80 -37 -35 15 59 36 272 28 280 -5 5 -20 15 -33 21 -19 9 -24 21 -26 64
-3 51 13 75 20 30z m588 -257 c126 -91 106 -263 -36 -314 -92 -33 -128 -23
-211 56 -34 32 -47 39 -70 34 -31 -6 -93 16 -93 33 0 8 15 9 45 4 56 -8 67 0
107 82 60 122 172 168 258 105z m-484 -145 c8 -22 -55 -135 -100 -178 -41 -41
-62 -49 -51 -20 4 9 14 45 22 80 17 65 33 82 33 33 0 -31 17 -52 24 -29 30
113 56 155 72 114z m1904 -241 c10 -12 16 -13 27 -4 15 13 15 14 31 -24 16
-38 15 -44 -8 -50 -11 -3 -20 -12 -20 -21 0 -9 9 -42 20 -73 41 -117 23 -190
-46 -190 -42 0 -43 1 -37 26 8 36 11 37 28 15 11 -15 17 -17 32 -8 20 12 31
88 14 107 -5 7 -19 41 -32 77 -12 36 -28 74 -35 85 -31 44 -7 99 26 60z
m-2070 -30 c0 -9 12 -21 28 -27 15 -7 28 -13 29 -13 2 -1 -5 -26 -15 -55 -23
-66 -45 -80 -40 -24 3 34 0 39 -19 42 -27 4 -26 3 -11 53 11 39 28 53 28 24z
m144 -377 c9 -12 16 -31 16 -42 0 -11 16 -48 35 -83 39 -70 40 -73 25 -73 -6
0 -25 23 -42 50 -21 33 -38 50 -51 50 -21 0 -67 36 -67 52 0 5 8 8 18 6 13 -2
18 5 20 30 4 38 24 42 46 10z m1710 -359 c14 -17 26 -36 26 -42 0 -6 22 -50
50 -98 46 -79 49 -89 39 -118 -10 -27 -8 -38 15 -79 103 -185 162 -428 132
-546 -9 -37 -33 -32 -40 8 -4 19 -14 49 -23 67 -10 19 -17 47 -18 64 0 20 -6
31 -17 33 -25 5 -24 -57 2 -111 29 -60 37 -117 17 -117 -29 0 -41 -42 -43
-143 -2 -105 -4 -112 -37 -112 -18 0 -23 -8 -28 -40 -4 -22 -15 -60 -24 -85
-18 -48 -24 -217 -9 -242 8 -12 12 -46 17 -150 2 -52 -14 -81 -35 -60 -22 22
-67 15 -74 -13 -5 -20 -41 -46 -47 -33 -28 54 -47 59 -81 23 -34 -37 -76 -38
-94 -2 -16 34 -65 38 -84 7 -19 -30 -73 -27 -94 5 -18 28 -55 33 -78 10 -52
-53 -64 51 -15 140 17 31 28 63 25 71 -21 56 -90 -93 -84 -185 5 -90 -13 -90
-27 0 l-11 64 -54 7 c-30 3 -74 6 -96 7 l-42 1 -8 -57 c-13 -80 -34 -82 -34
-4 0 37 -8 80 -20 111 -25 63 -25 62 2 58 46 -6 30 52 -44 162 -22 31 -28 49
-21 59 15 24 31 24 38 -1 4 -13 22 -59 40 -103 18 -44 39 -100 46 -125 33
-119 161 -122 185 -5 6 33 24 92 39 130 14 39 38 105 52 148 14 42 30 77 34
77 13 0 11 -12 -7 -55 -10 -24 -13 -51 -9 -72 4 -24 1 -41 -13 -61 -39 -56
-73 -136 -70 -166 4 -38 21 -37 29 1 3 15 28 64 54 108 46 74 49 85 51 150 1
53 7 84 28 126 29 62 37 184 14 207 -18 18 -38 14 -38 -7 0 -10 -6 -21 -13
-24 -7 -3 -19 -31 -26 -63 -8 -33 -43 -140 -78 -239 -35 -99 -70 -207 -77
-240 -24 -113 -90 -89 -142 51 -18 49 -54 145 -79 214 -26 69 -49 145 -51 170
-4 58 -25 122 -41 128 -15 4 -17 -21 -3 -66 9 -34 4 -92 -9 -92 -19 0 -45 112
-33 142 12 33 9 48 -13 48 -17 0 -25 -23 -25 -75 0 -41 10 -74 50 -161 27 -58
35 -94 21 -94 -30 0 -10 -64 53 -166 28 -46 28 -48 11 -76 -16 -28 -16 -31 9
-94 41 -101 24 -215 -22 -146 -20 31 -59 29 -74 -3 -16 -36 -50 -41 -93 -15
-39 24 -69 20 -85 -11 -15 -27 -58 -24 -86 6 -28 30 -47 32 -74 5 -26 -26 -36
-25 -56 5 -18 27 -61 34 -83 13 -10 -11 -15 -9 -26 6 -15 20 -17 217 -2 232
22 23 -3 202 -34 242 -10 13 -21 44 -25 70 -8 54 -19 72 -45 72 -16 0 -19 8
-20 43 -2 87 -32 201 -57 212 -19 9 -22 16 -20 60 3 45 1 50 -20 53 -38 6 5
195 69 304 29 49 32 69 15 109 -5 10 14 42 54 94 36 47 60 87 60 102 0 17 16
41 48 72 27 25 58 59 69 76 l21 30 49 -18 c26 -9 57 -17 69 -17 11 0 57 -18
101 -39 45 -22 97 -43 117 -47 23 -4 55 -23 87 -51 47 -43 53 -45 94 -40 26 2
61 -1 83 -9 47 -17 102 -17 124 0 12 8 35 11 67 8 47 -4 51 -3 99 42 27 25 57
46 67 46 19 0 124 51 165 80 19 13 37 16 78 13 44 -5 58 -2 90 20 22 14 50 27
63 30 13 2 27 5 31 6 3 0 18 -13 32 -30z m-846 -119 c36 -36 44 -40 92 -40 37
0 50 -4 48 -12 -8 -22 -76 -21 -112 1 -18 12 -42 21 -53 21 -15 0 -19 7 -19
35 0 43 -4 43 44 -5z m-784 -35 c3 -8 12 -15 21 -15 22 0 20 -4 -27 -63 -24
-29 -50 -63 -59 -77 -32 -48 -30 -12 2 39 23 38 30 59 26 80 -8 39 24 70 37
36z m2029 -753 c112 -148 115 -342 7 -466 -44 -50 -113 -96 -144 -96 -14 0
-27 -4 -30 -9 -8 -12 -62 -22 -81 -15 -36 14 -20 146 25 197 22 25 40 48 40
51 0 4 16 29 35 57 40 58 83 185 92 270 7 71 9 72 56 11z m-2250 -44 c41 -142
52 -172 72 -197 24 -31 41 -66 49 -103 4 -16 17 -32 33 -40 49 -24 67 -62 71
-145 l4 -76 -42 7 c-174 28 -315 187 -315 356 0 102 5 116 69 212 39 60 38 60
59 -14z m2157 13 c0 -38 -51 -180 -74 -208 -13 -15 -31 -43 -40 -60 -17 -34
-44 -47 -30 -15 4 9 8 62 9 117 1 103 13 145 41 145 13 0 15 -10 9 -64 -5 -40
-3 -66 3 -70 16 -9 21 6 29 75 7 71 53 140 53 80z m-2379 -317 c47 -177 240
-334 410 -334 l27 0 -1 -94 c-4 -200 182 -269 581 -216 196 26 238 51 249 154
5 42 8 46 27 39 11 -4 41 -7 66 -8 l45 -1 5 -52 c9 -87 46 -113 190 -131 250
-31 494 -15 567 37 59 42 78 141 48 248 -6 19 1 22 76 37 192 38 337 175 356
338 6 47 7 50 32 45 14 -3 103 -17 196 -31 181 -27 255 -48 255 -71 0 -8 -4
-14 -8 -14 -35 0 0 -47 65 -89 83 -52 89 -68 39 -106 -83 -63 -294 -120 -636
-169 -129 -19 -236 -39 -238 -45 -2 -6 -11 -11 -20 -11 -13 0 -11 -4 6 -16 30
-21 28 -50 -5 -71 -16 -9 -46 -33 -68 -53 -68 -61 -285 -95 -590 -94 -126 1
-291 1 -365 1 -495 -1 -591 2 -695 16 -137 20 -212 42 -225 67 -5 10 -28 29
-50 41 -38 21 -40 25 -40 70 0 64 6 62 -280 109 -343 56 -369 62 -492 122
-147 70 -149 87 -18 153 87 44 90 46 90 80 0 28 5 36 23 40 89 22 344 73 352
71 5 -2 17 -29 26 -62z m2209 -9 c0 -3 -6 -16 -14 -28 -9 -14 -15 -60 -18
-132 l-3 -110 49 3 c44 4 145 28 189 47 10 4 17 3 17 -3 0 -15 -96 -49 -175
-63 -79 -14 -80 -15 -66 -119 6 -44 8 -86 5 -95 -9 -22 -27 -18 -21 4 2 11 -2
68 -11 128 -24 167 -22 278 6 331 19 35 42 56 42 37z m-1703 -111 c14 -60 16
-144 4 -144 -5 0 -10 -55 -10 -121 0 -131 -3 -143 -26 -113 -10 14 -12 33 -7
74 4 30 7 124 7 208 0 158 10 189 32 96z m593 -434 c0 -5 16 -10 36 -10 56 0
36 -24 -27 -33 -280 -38 -386 -37 -373 6 9 31 13 33 27 15 22 -28 114 -31 132
-5 13 19 18 20 35 9 32 -20 114 -15 135 8 20 22 35 26 35 10z m498 -9 c26 -29
128 -36 142 -10 14 25 23 24 35 -3 12 -27 94 -37 132 -17 23 12 67 -10 52 -26
-17 -16 -400 5 -446 25 -35 15 -27 29 12 23 26 -4 36 -2 41 11 8 21 12 20 32
-3z"/>
<path d="M1850 3784 c-45 -38 -40 -88 8 -92 18 -2 40 3 49 10 9 7 48 15 87 18
64 5 71 7 74 27 9 61 -156 89 -218 37z"/>
<path d="M2973 3794 c-36 -18 -39 -25 -23 -55 9 -15 22 -19 68 -19 36 0 66 -6
78 -15 60 -45 119 30 63 81 -29 26 -142 31 -186 8z"/>
<path d="M1275 3528 c-61 -176 -78 -335 -37 -353 12 -5 32 -29 43 -52 24 -49
36 -60 52 -44 16 16 -31 103 -66 119 -25 12 -28 18 -23 46 3 17 9 58 14 91 5
33 19 89 31 124 11 35 18 67 15 72 -8 13 -24 11 -29 -3z"/>
<path d="M2923 3440 c-76 -39 -116 -123 -111 -240 3 -83 4 -83 100 -125 44
-20 73 -39 81 -55 7 -13 30 -33 51 -45 21 -11 59 -44 84 -72 47 -56 59 -62 68
-38 8 21 -70 112 -117 136 -39 20 -51 39 -25 39 8 0 18 -4 21 -10 3 -5 16 -10
28 -10 12 0 43 -22 75 -56 32 -33 59 -53 68 -50 24 9 16 26 -45 86 l-58 59 41
44 c33 36 50 45 88 51 49 7 98 38 98 61 0 24 -43 46 -78 39 -30 -6 -31 -5 -67
70 -59 125 -187 174 -302 116z m200 -39 c21 -13 45 -45 72 -98 38 -75 42 -78
78 -81 62 -5 19 -42 -50 -42 -16 0 -41 -17 -71 -48 -66 -68 -109 -74 -213 -30
l-77 33 -13 53 c-40 167 132 301 274 213z"/>
<path d="M2435 3057 c-11 -8 -39 -21 -63 -28 -154 -46 -129 -223 45 -321 62
-35 63 -38 22 -72 -55 -47 -180 -30 -261 34 -46 37 -94 40 -109 7 -25 -56 46
-124 159 -151 95 -24 98 -26 84 -73 -59 -197 254 -320 407 -159 42 44 61 138
34 168 -26 29 -8 45 81 73 115 34 158 71 154 129 -4 58 -46 63 -113 12 -86
-66 -213 -84 -274 -39 -40 31 -38 48 10 62 164 49 200 272 55 348 -42 22 -205
29 -231 10z m215 -42 c126 -66 83 -236 -74 -288 -54 -18 -63 -47 -29 -88 69
-82 236 -79 348 6 48 37 65 43 65 22 0 -36 -102 -98 -185 -113 -59 -10 -96
-84 -55 -109 24 -15 10 -75 -27 -116 -137 -152 -365 -74 -347 118 l6 73 -33
14 c-19 7 -58 19 -86 26 -63 14 -133 62 -133 90 0 28 15 25 58 -10 87 -69 244
-84 307 -29 55 48 47 83 -27 126 -128 75 -177 200 -94 242 55 28 78 32 90 15
18 -23 188 -43 211 -24 21 18 12 24 -13 9 -23 -15 -167 1 -186 21 -38 38 134
51 204 15z"/>
<path d="M2402 2489 c-97 -95 42 -228 183 -175 99 38 114 88 45 156 -68 69
-120 69 -120 -1 0 -10 -4 -19 -9 -19 -11 0 -21 25 -21 51 0 30 -42 24 -78 -12z
m72 -18 c6 -42 46 -51 46 -11 0 73 69 56 130 -31 l22 -30 -27 -29 c-79 -83
-197 -78 -249 11 -24 40 -20 63 16 98 42 41 54 39 62 -8z"/>
</g>
</svg>
